<svg id="emIg9Xc4elV1" xmlns="http://www.w3.org/2000/svg" xmlns:xlink="http://www.w3.org/1999/xlink" viewBox="0 0 640 480" shape-rendering="geometricPrecision" text-rendering="geometricPrecision"><defs><filter id="emIg9Xc4elV3-filter" x="-400%" width="600%" y="-400%" height="600%"><feGaussianBlur id="emIg9Xc4elV3-filter-drop-shadow-0-blur" in="SourceAlpha" stdDeviation="0,0"/><feOffset id="emIg9Xc4elV3-filter-drop-shadow-0-offset" dx="0" dy="0" result="tmp"/><feFlood id="emIg9Xc4elV3-filter-drop-shadow-0-flood" flood-color="rgb(0,0,0)"/><feComposite id="emIg9Xc4elV3-filter-drop-shadow-0-composite" operator="in" in2="tmp"/><feMerge id="emIg9Xc4elV3-filter-drop-shadow-0-merge"><feMergeNode id="emIg9Xc4elV3-filter-drop-shadow-0-merge-node-1"/><feMergeNode id="emIg9Xc4elV3-filter-drop-shadow-0-merge-node-2" in="SourceGraphic"/></feMerge></filter></defs><g id="emIg9Xc4elV2"><path id="emIg9Xc4elV3" d="M288.52647,137.33906C214.53547,125.00723,192.52652,257.53572,267.92561,271.24464C394.079,294.18162,387.91331,157.21643,288.52647,137.33906" filter="url(#emIg9Xc4elV3-filter)" fill="none" stroke="rgb(63,87,135)" stroke-width="3"/><path id="emIg9Xc4elV4" d="M249.61373,183.11874C255.39912,182.39557,314.14227,174.703,314.84978,175.10729C316.53874,176.07241,316.37577,178.92226,315.99427,180.82975C312.54118,198.09521,300.94382,214.70824,296.5379,232.3319C295.97508,234.58317,297.36124,237.96896,295.39341,239.19885C289.06506,243.15407,240.58083,191.05636,251.90271,184.26323" fill="none" stroke="rgb(63,87,135)" stroke-width="3" stroke-dashoffset="209.08" stroke-dasharray="0"/><path id="emIg9Xc4elV5" d="M247.32475,264.37768C264.17154,271.1164,279.77738,283.51319,298.8269,284.97854C362.95131,289.91119,392.22054,234.01462,354.90701,184.26323" fill="none" stroke="rgb(63,87,135)" stroke-width="3"/></g></svg>